<svg width="158" height="158" viewBox="0 0 158 158" fill="none" xmlns="http://www.w3.org/2000/svg">
<g filter="url(#filter0_d_2_2138)">
<circle cx="79" cy="75" r="75" fill="white"/>
<circle cx="79" cy="75" r="74.5" stroke="#0066FF"/>
</g>
<path d="M104.547 68.7694L104.318 69.2139C104.189 69.1471 104.076 69.0514 103.989 68.9332C103.902 68.8149 103.844 68.6776 103.82 68.5321C103.796 68.3865 103.807 68.2375 103.852 68.0971C103.897 67.9569 103.975 67.8299 104.078 67.7258L104.082 67.7216L104.082 67.7216C104.232 67.5728 104.347 67.3948 104.419 67.2003C104.491 67.0064 104.519 66.8002 104.502 66.5954C104.466 66.2294 104.292 65.8869 104.007 65.6366C103.722 65.3856 103.349 65.2465 102.96 65.25L102.956 65.25L101.007 65.25C100.943 65.2504 100.879 65.2545 100.816 65.2622L100.683 65.2783L100.561 65.2264C100.53 65.2135 100.498 65.2031 100.466 65.1956L100.233 65.1415L100.129 64.9269C98.9632 62.5244 97.4458 59.4328 94.3461 57.9288C91.9977 56.7903 88.6167 56.1769 85.5605 55.8528C82.5191 55.5302 79.8617 55.5 78.9959 55.5C78.13 55.5 75.4726 55.5302 72.4319 55.8523C69.3764 56.176 65.9969 56.7886 63.6516 57.9252C60.5521 59.4292 59.0347 62.5207 57.8688 64.9232L57.8639 64.9332L57.8638 64.9331L57.8538 64.9526L57.7349 65.1844L57.4769 65.2198C57.4537 65.2229 57.4312 65.2285 57.4095 65.2363L57.2978 65.2765L57.1799 65.2622C57.1164 65.2545 57.0526 65.2504 56.9886 65.25H55.0361H55.0316V65.25C54.6431 65.2465 54.2694 65.3856 53.9844 65.6366C53.7007 65.8865 53.5258 66.2283 53.4902 66.5936C53.4745 66.7973 53.5038 67.0021 53.5764 67.1945C53.6495 67.3881 53.765 67.565 53.9158 67.7127L53.9216 67.7184L53.9215 67.7184C54.0244 67.8226 54.102 67.9496 54.1471 68.0898C54.1923 68.2302 54.2034 68.3791 54.1795 68.5248C54.1556 68.6703 54.0974 68.8076 54.0105 68.9259C53.9242 69.0433 53.8121 69.1386 53.6837 69.2052C52.5665 69.7948 51.643 70.2911 51.0842 71.0171L50.6879 70.7121L51.0849 71.0162C51.0805 71.0219 51.0759 71.0279 51.071 71.0342C50.8572 71.3109 50.1524 72.2229 49.7144 77.0022C49.466 79.7559 49.4309 82.5891 49.6224 84.392C50.0289 88.1856 50.79 90.4695 50.8141 90.5408C50.9015 90.7996 51.063 91.0307 51.2818 91.2063C51.5006 91.3819 51.7674 91.4945 52.0515 91.5293L52.4906 91.5832V92.0256V92.05C52.4906 92.4304 52.6455 92.7979 52.9255 93.0708C53.206 93.3442 53.589 93.5 53.9909 93.5H60.992C61.3939 93.5 61.7769 93.3442 62.0574 93.0708C62.3374 92.7979 62.4923 92.4304 62.4923 92.05V91.55H62.9923C64.0014 91.55 64.6986 91.3767 65.4869 91.1782C66.6596 90.8703 67.8583 90.6654 69.0684 90.5659C72.8988 90.2099 76.7062 90.0875 78.9959 90.0875C81.2386 90.0875 85.2134 90.2098 89.0507 90.5659M104.547 68.7694L89.0535 90.5662C89.0526 90.5661 89.0516 90.566 89.0507 90.5659M104.547 68.7694L104.315 69.2123C105.43 69.797 106.351 70.2944 106.916 71.0251L106.916 71.026C106.92 71.031 106.924 71.0361 106.928 71.0415C107.138 71.3096 107.847 72.2161 108.285 77.0096C108.536 79.7675 108.568 82.5958 108.377 84.4003C107.97 88.1958 107.208 90.4801 107.185 90.5494C107.097 90.8086 106.935 91.04 106.716 91.2155C106.496 91.3913 106.229 91.5035 105.944 91.5377L105.504 91.5906V92.0342V92.0488C105.504 92.4292 105.349 92.7966 105.069 93.0696C104.788 93.343 104.405 93.4988 104.003 93.4988H97.0023C96.6003 93.4988 96.2173 93.343 95.9369 93.0696C95.6568 92.7966 95.502 92.4292 95.502 92.0488V91.5578L95.0111 91.5489C94.0739 91.5317 93.3997 91.3691 92.6457 91.1805M104.547 68.7694C104.485 68.7377 104.432 68.6923 104.392 68.6371C104.351 68.5818 104.324 68.5181 104.313 68.451C104.302 68.3839 104.307 68.3151 104.328 68.2503C104.349 68.1854 104.385 68.1262 104.433 68.0772C104.635 67.8776 104.79 67.6377 104.888 67.3741C104.986 67.1105 105.024 66.8294 105 66.5501L92.6457 91.1805M89.0507 90.5659C90.2654 90.6656 91.4685 90.8713 92.6457 91.1805M89.0507 90.5659C89.0498 90.5658 89.049 90.5658 89.0482 90.5657L92.6457 91.1805M60.4534 66.4268C60.3423 66.6556 60.2929 66.9091 60.3105 67.1629C60.3282 67.4167 60.4122 67.6609 60.5535 67.8723C60.6947 68.0837 60.8881 68.2548 61.1143 68.3705C61.3403 68.4863 61.5922 68.5433 61.8461 68.5368L61.8465 68.5368C63.1637 68.5021 64.9332 68.4426 66.872 68.3775C71.0825 68.236 76.0909 68.0677 78.9959 68.0677C81.9343 68.0677 87.0259 68.2359 91.264 68.3758C93.1446 68.4379 94.8571 68.4944 96.1389 68.5283L96.1394 68.5283C96.3932 68.5347 96.6451 68.4778 96.8712 68.362C97.0973 68.2462 97.2908 68.0751 97.432 67.8638C97.5733 67.6524 97.6573 67.4082 97.6749 67.1544C97.6925 66.9015 97.6435 66.649 97.5334 66.4209C97.5329 66.42 97.5325 66.4191 97.532 66.4182L97.4093 66.1585L97.4093 66.1585L97.4071 66.1538L97.3994 66.1379C96.9019 65.1131 96.3522 63.9808 95.666 62.9808C94.9748 61.9736 94.1211 61.0639 92.9956 60.5175C91.4498 59.7646 89.1238 59.2386 86.627 58.8982C84.1171 58.556 81.385 58.3951 78.9959 58.3951C76.6066 58.3951 73.8744 58.5572 71.3646 58.9C68.8678 59.241 66.5422 59.7671 64.9968 60.5172C63.8712 61.0635 63.0161 61.9728 62.324 62.9801C61.6333 63.9854 61.0817 65.1242 60.5842 66.1548L60.584 66.1547L60.5787 66.1665C60.5524 66.2248 60.5252 66.2802 60.4944 66.3428C60.4815 66.3693 60.4679 66.397 60.4534 66.4268ZM60.4534 66.4268L60.9026 66.6449L60.4533 66.4269C60.4534 66.4269 60.4534 66.4268 60.4534 66.4268ZM53.792 72.0557L53.793 72.0555C55.4346 71.8093 56.4346 72.0979 58.7129 72.7555C58.869 72.8005 59.031 72.8473 59.1997 72.8957C61.01 73.4148 62.3379 74.1119 63.1184 74.6861C63.5216 74.9792 63.567 75.466 63.4662 75.8092C63.3649 76.1548 63.0665 76.531 62.576 76.5746C60.4088 76.8286 58.2278 76.9539 56.045 76.95L53.792 72.0557ZM53.792 72.0557C53.4198 72.1123 53.1094 72.2338 52.8847 72.4712C52.6654 72.7029 52.5922 72.9807 52.5492 73.1833C52.4384 73.7011 52.4246 74.2097 52.6115 75.0425M53.792 72.0557L52.6115 75.0425M67.811 86.5678C69.1001 86.711 71.3629 86.7045 75.1403 86.6936C76.2921 86.6903 77.5846 86.6866 79.0334 86.6866C80.482 86.6866 81.7746 86.6903 82.9265 86.6936C86.2123 86.7031 88.3526 86.7092 89.7025 86.6165V86.6409L90.2614 86.5746C91.2029 86.463 92.2451 86.0073 92.8858 85.3315C93.2109 84.9887 93.4616 84.5571 93.4978 84.0582C93.5348 83.5473 93.3411 83.0479 92.9329 82.5954C92.688 82.3201 92.3357 82.0868 91.9304 81.8843C91.5185 81.6786 91.0208 81.4897 90.4577 81.3166C89.3314 80.9703 87.9049 80.6757 86.2965 80.4414C83.0933 79.9749 81.9053 79.85 79.0209 79.85C76.3782 79.85 75.0453 80.0199 72.4995 80.3443C72.2624 80.3745 72.0148 80.4061 71.7546 80.4389C70.2076 80.6345 68.8391 80.9078 67.7238 81.2541C66.6209 81.5965 65.7147 82.0255 65.1401 82.5622L65.1382 82.564C64.6856 82.991 64.4599 83.4874 64.4927 84.0123C64.5243 84.5173 64.7899 84.9556 65.123 85.3005C65.7825 85.9831 66.8609 86.4647 67.811 86.5678ZM67.811 86.5678C67.8108 86.5678 67.8105 86.5678 67.8103 86.5678L67.8655 86.0708L67.8116 86.5679C67.8114 86.5679 67.8112 86.5679 67.811 86.5678ZM52.6115 75.0425C52.7831 75.819 53.3339 76.3038 53.9705 76.5816C54.5964 76.8548 55.3453 76.9499 56.0441 76.95L52.6115 75.0425ZM95.2885 76.5731C97.4986 76.8239 99.7217 76.9493 101.947 76.9488H101.947C102.643 76.9488 103.393 76.855 104.02 76.5826C104.657 76.3059 105.21 75.8214 105.38 75.0422L105.38 75.0422C105.521 74.4061 105.545 73.7504 105.45 73.1062C105.428 72.9125 105.348 72.6984 105.216 72.5164C105.078 72.3245 104.855 72.1303 104.537 72.0689L104.537 72.0688C103.084 71.7879 101.436 72.1351 98.792 72.8945C96.9894 73.4121 95.6412 74.0961 94.864 74.6918L94.8639 74.692C94.4842 74.9833 94.4021 75.4351 94.4767 75.7848C94.5459 76.1093 94.8014 76.5248 95.2885 76.5731Z" fill="#0066FF" stroke="#0066FF"/>
<defs>
<filter id="filter0_d_2_2138" x="0" y="0" width="158" height="158" filterUnits="userSpaceOnUse" color-interpolation-filters="sRGB">
<feFlood flood-opacity="0" result="BackgroundImageFix"/>
<feColorMatrix in="SourceAlpha" type="matrix" values="0 0 0 0 0 0 0 0 0 0 0 0 0 0 0 0 0 0 127 0" result="hardAlpha"/>
<feOffset dy="4"/>
<feGaussianBlur stdDeviation="2"/>
<feComposite in2="hardAlpha" operator="out"/>
<feColorMatrix type="matrix" values="0 0 0 0 0 0 0 0 0 0 0 0 0 0 0 0 0 0 0.25 0"/>
<feBlend mode="normal" in2="BackgroundImageFix" result="effect1_dropShadow_2_2138"/>
<feBlend mode="normal" in="SourceGraphic" in2="effect1_dropShadow_2_2138" result="shape"/>
</filter>
</defs>
</svg>
